<svg enable-background="new 0 0 128 128" viewBox="0 0 128 128" xmlns="http://www.w3.org/2000/svg" xmlns:xlink="http://www.w3.org/1999/xlink"><linearGradient id="a"><stop offset=".101" stop-color="#cc403d"/><stop offset=".7948" stop-color="#ef5350"/></linearGradient><linearGradient id="b" gradientTransform="matrix(.9132 .4075 .4075 -.9132 -16.203 85.4376)" gradientUnits="userSpaceOnUse" x1="66.6672" x2="66.6672" xlink:href="#a" y1="-2.6805" y2="101.37"/><linearGradient id="c"><stop offset="0" stop-color="#616161"/><stop offset="1" stop-color="#323232"/></linearGradient><linearGradient id="d" gradientTransform="matrix(.9132 .4075 .4075 -.9132 -16.203 85.4376)" gradientUnits="userSpaceOnUse" x1="66.6641" x2="66.6641" xlink:href="#c" y1="106.027" y2="125.5034"/><linearGradient id="e" gradientTransform="matrix(.794 .608 .608 -.794 -18.201 61.384)" gradientUnits="userSpaceOnUse" x1="83.0711" x2="83.0711" xlink:href="#a" y1="-2.4075" y2="101.6379"/><linearGradient id="f" gradientTransform="matrix(.794 .608 .608 -.794 -18.201 61.384)" gradientUnits="userSpaceOnUse" x1="83.0732" x2="83.0732" xlink:href="#c" y1="106.297" y2="125.764"/><linearGradient id="g"><stop offset=".009199982" stop-color="#bdbdbd"/><stop offset="1" stop-color="#fff"/></linearGradient><linearGradient id="h" gradientUnits="userSpaceOnUse" x1="21.3456" x2="18.741" xlink:href="#g" y1="70.0585" y2="26.3377"/><linearGradient id="i" gradientUnits="userSpaceOnUse" x1="107.5086" x2="104.904" xlink:href="#g" y1="64.9254" y2="21.2045"/><linearGradient id="j" gradientUnits="userSpaceOnUse" x1="63.245" x2="63.245" y1="62.4021" y2="122.8677"><stop offset="0" stop-color="#e0e0e0"/><stop offset=".124" stop-color="#f5f5f5"/><stop offset="1" stop-color="#e0e0e0"/></linearGradient><linearGradient id="k" gradientTransform="matrix(1 0 0 -1 0 128)" gradientUnits="userSpaceOnUse" x1="26.241" x2="100.031" y1="34.735" y2="34.735"><stop offset="0" stop-color="#595858" stop-opacity=".5"/><stop offset=".2" stop-color="#fff" stop-opacity="0"/><stop offset=".8" stop-color="#fff" stop-opacity="0"/><stop offset="1" stop-color="#595858" stop-opacity=".5"/></linearGradient><linearGradient id="l" gradientUnits="userSpaceOnUse" x1="63.24" x2="63.24" y1="24.5692" y2="61.4992"><stop offset="0" stop-color="#ddd"/><stop offset=".5061" stop-color="#eee"/></linearGradient><radialGradient id="m" cx="63.0416" cy="67.6958" gradientUnits="userSpaceOnUse" r="35.7979"><stop offset=".5549" stop-color="#eee" stop-opacity="0"/><stop offset="1" stop-color="#bdbdbd" stop-opacity=".9"/></radialGradient><path d="m83.37 18.87-40.94 93.33c-.47 1.08.04 2.35 1.15 2.85s2.4.03 2.89-1.05l42.13-92.8z" fill="url(#b)"/><path d="m94.52 8.2c.68-1.49.02-3.26-1.47-3.94-1.51-.69-3.29-.01-3.96 1.51l-6.62 15.09 5.23 2.34z" fill="url(#d)"/><path d="m107.28 29.45-61.45 81.31c-.71.94-.5 2.3.46 3.04s2.33.58 3.05-.35l62.48-80.51s-4.54-3.49-4.54-3.49z" fill="url(#e)"/><path d="m120.6 21.66c1.01-1.3.77-3.16-.52-4.17-1.31-1.02-3.2-.77-4.2.55l-9.93 13.15 4.55 3.48s10.1-13.01 10.1-13.01z" fill="url(#f)"/><path d="m31.44 67.63-24.22-24.22c-.6-.6-.6-1.57 0-2.17s1.57-.6 2.17 0l24.22 24.22c.6.6.6 1.57 0 2.17s-1.57.6-2.17 0z" fill="url(#h)"/><path d="m93.65 66.98c-.6-.6-.6-1.57 0-2.17l24.22-24.22c.6-.6 1.57-.6 2.17 0s.6 1.57 0 2.17l-24.21 24.22c-.6.6-1.57.6-2.18 0z" fill="url(#i)"/><path d="m86.42 124h-46.35c-2 0-3.71-1.45-4.04-3.43l-9.68-58.04h73.79l-9.68 58.04c-.32 1.98-2.03 3.43-4.04 3.43z" fill="url(#j)"/><path d="m86.42 124h-46.35c-2 0-3.71-1.45-4.04-3.43l-9.68-58.04h73.79l-9.68 58.04c-.32 1.98-2.03 3.43-4.04 3.43z" fill="url(#k)"/><path d="m84.33 112.36v1.1h-41.65v-1.1c0-1.14.68-2.13 1.63-2.38 3.79-1 7.69-1.5 11.61-1.5h15.17c3.92 0 7.82.5 11.61 1.5.96.24 1.63 1.23 1.63 2.38z" fill="#ef5350"/><path d="m100.14 62.53h-73.79l-.01-.03 8.19-16.35c.39-.76 1-1.39 1.76-1.79l13.75-7.22c.59-.31 1.25-.47 1.91-.47h3.7c.92 0 1.37-1.1.73-1.75-.7-.7-1.33-1.37-1.33-1.48.19-4.36 3.78-7.84 8.19-7.84s8 3.48 8.19 7.84c0 .11-.64.79-1.33 1.48-.64.65-.18 1.75.73 1.75h3.7c.67 0 1.32.16 1.91.47l13.75 7.22c.76.4 1.38 1.03 1.76 1.79l8.19 16.35z" fill="url(#l)"/><path d="m100.14 62.53h-73.79l-.01-.03 8.19-16.35c.39-.76 1-1.39 1.76-1.79l13.75-7.22c.59-.31 1.25-.47 1.91-.47h3.7c.92 0 1.37-1.1.73-1.75-.7-.7-1.33-1.37-1.33-1.48.19-4.36 3.78-7.84 8.19-7.84s8 3.48 8.19 7.84c0 .11-.64.79-1.33 1.48-.64.65-.18 1.75.73 1.75h3.7c.67 0 1.32.16 1.91.47l13.75 7.22c.76.4 1.38 1.03 1.76 1.79l8.19 16.35z" fill="url(#m)"/><g fill="#ef5350"><path d="m75.1 86.59h-23.17c-.63 0-.86-.98-.32-1.36 3.24-2.29 7.12-3.52 11.09-3.52h1.63c3.97 0 7.85 1.23 11.09 3.52.55.38.31 1.36-.32 1.36z"/><path d="m55.84 84.15v10.2h3.72c-.64 0-1.16-.83-1.16-1.84 0-1.02.52-1.84 1.16-1.84h7.92c.64 0 1.16.83 1.16 1.84 0 1.02-.52 1.84-1.16 1.84h3.72v-10.2z"/><path d="m52.14 84.3 3.05 2.29h-3.04c-.69 0-1.31-.4-1.59-1.03-.43-.99.72-1.9 1.58-1.26z"/><path d="m74.88 84.3-3.05 2.29h3.04c.69 0 1.31-.4 1.59-1.03.43-.99-.72-1.9-1.58-1.26z"/><path d="m53.27 98.8v9.77h20.48v-9.77zm16.76 8.57h-13.04c-.64 0-1.16-.83-1.16-1.84 0-1.02.52-1.84 1.16-1.84h13.04c.64 0 1.16.83 1.16 1.84 0 1.02-.52 1.84-1.16 1.84z"/><path d="m78.62 98.8h-30.23c-.63 0-.86-.98-.32-1.36 3.25-2.29 7.13-3.52 11.1-3.52h8.67c3.96 0 7.83 1.22 11.08 3.51l.02.02c.55.37.32 1.35-.32 1.35z"/><path d="m48.4 96.51 3.05 2.29h-3.04c-.69 0-1.31-.4-1.59-1.03-.44-.98.72-1.9 1.58-1.26z"/><path d="m78.62 96.51-3.05 2.29h3.04c.69 0 1.31-.4 1.59-1.03.43-.98-.72-1.9-1.58-1.26z"/></g><path d="m63.51 76.2v-6.7" fill="none" stroke="#ef5350" stroke-linecap="round" stroke-linejoin="round" stroke-miterlimit="10"/><path d="m69.44 78.16h-11.86c-.4 0-.57-.59-.26-.87l2.91-2.68c.93-.86 2.09-1.33 3.28-1.33s2.34.47 3.28 1.33l2.91 2.68c.3.28.13.87-.26.87z" fill="#ef5350"/><path d="m59.76 77.05v4.92h3.63c-.64 0-1.16-.83-1.16-1.84 0-1.02.52-1.84 1.16-1.84h.24c.64 0 1.16.83 1.16 1.84 0 1.02-.52 1.84-1.16 1.84h3.63v-4.92z" fill="#ef5350"/><path d="m57.79 75.87 3.05 2.29h-3.04c-.69 0-1.31-.4-1.59-1.03-.43-.98.73-1.9 1.58-1.26z" fill="#ef5350"/><path d="m69.22 75.87-3.05 2.29h3.04c.69 0 1.31-.4 1.59-1.03.43-.98-.72-1.9-1.58-1.26z" fill="#ef5350"/></svg>